<svg width="64" height="64" viewBox="0 0 64 64" fill="none" xmlns="http://www.w3.org/2000/svg">
<rect width="64" height="64" rx="16" fill="#FFDCBF"/>
<path d="M32 47C29.35 47 27.1875 46.5812 25.5125 45.7437C23.8375 44.9062 23 43.825 23 42.5C23 41.9 23.1813 41.3437 23.5438 40.8312C23.9063 40.3187 24.4125 39.875 25.0625 39.5L27.425 41.7125C27.2 41.8125 26.9562 41.925 26.6937 42.05C26.4312 42.175 26.225 42.325 26.075 42.5C26.4 42.9 27.15 43.25 28.325 43.55C29.5 43.85 30.725 44 32 44C33.275 44 34.5063 43.85 35.6938 43.55C36.8813 43.25 37.6375 42.9 37.9625 42.5C37.7875 42.3 37.5625 42.1375 37.2875 42.0125C37.0125 41.8875 36.75 41.775 36.5 41.675L38.825 39.425C39.525 39.825 40.0625 40.2813 40.4375 40.7938C40.8125 41.3063 41 41.875 41 42.5C41 43.825 40.1625 44.9062 38.4875 45.7437C36.8125 46.5812 34.65 47 32 47V47M32.0375 38.75C34.5125 36.925 36.375 35.0938 37.625 33.2563C38.875 31.4188 39.5 29.575 39.5 27.725C39.5 25.175 38.6875 23.25 37.0625 21.95C35.4375 20.65 33.75 20 32 20C30.25 20 28.5625 20.65 26.9375 21.95C25.3125 23.25 24.5 25.175 24.5 27.725C24.5 29.4 25.1125 31.1438 26.3375 32.9563C27.5625 34.7688 29.4625 36.7 32.0375 38.75V38.75M32 42.5C28.475 39.9 25.8438 37.375 24.1063 34.925C22.3688 32.475 21.5 30.075 21.5 27.725C21.5 25.95 21.8188 24.3938 22.4563 23.0563C23.0938 21.7188 23.9125 20.6 24.9125 19.7C25.9125 18.8 27.0375 18.125 28.2875 17.675C29.5375 17.225 30.775 17 32 17C33.225 17 34.4625 17.225 35.7125 17.675C36.9625 18.125 38.0875 18.8 39.0875 19.7C40.0875 20.6 40.9063 21.7188 41.5438 23.0563C42.1813 24.3938 42.5 25.95 42.5 27.725C42.5 30.075 41.6312 32.475 39.8937 34.925C38.1562 37.375 35.525 39.9 32 42.5V42.5M32 30.5C32.825 30.5 33.5312 30.2062 34.1187 29.6187C34.7062 29.0312 35 28.325 35 27.5C35 26.675 34.7062 25.9688 34.1187 25.3813C33.5312 24.7938 32.825 24.5 32 24.5C31.175 24.5 30.4688 24.7938 29.8813 25.3813C29.2938 25.9688 29 26.675 29 27.5C29 28.325 29.2938 29.0312 29.8813 29.6187C30.4688 30.2062 31.175 30.5 32 30.5V30.5M32 27.5V27.5V27.5V27.5V27.5V27.5V27.5V27.5V27.5V27.5" fill="#8C5000"/>
</svg>
